<svg xmlns="http://www.w3.org/2000/svg" xmlns:xlink="http://www.w3.org/1999/xlink" width="500" zoomAndPan="magnify" viewBox="0 0 375 374.999991" height="500" preserveAspectRatio="xMidYMid meet" version="1.0"><defs><clipPath id="c971e56367"><path d="M 83 115 L 270 115 L 270 241 L 83 241 Z M 83 115 " clip-rule="nonzero"/></clipPath><clipPath id="4390f766c3"><path d="M 305.171875 200.210938 L 120.898438 297.761719 L 55.984375 175.136719 L 240.253906 77.585938 Z M 305.171875 200.210938 " clip-rule="nonzero"/></clipPath><clipPath id="c2f8da5061"><path d="M 305.171875 200.210938 L 120.898438 297.761719 L 55.984375 175.136719 L 240.253906 77.585938 Z M 305.171875 200.210938 " clip-rule="nonzero"/></clipPath><clipPath id="33aada092c"><path d="M 305.171875 200.210938 L 120.898438 297.761719 L 55.984375 175.136719 L 240.253906 77.585938 Z M 305.171875 200.210938 " clip-rule="nonzero"/></clipPath></defs><g clip-path="url(#c971e56367)"><g clip-path="url(#4390f766c3)"><g clip-path="url(#c2f8da5061)"><g clip-path="url(#33aada092c)"><path fill="#121212" d="M 102.683594 207.953125 C 106.652344 203.140625 110.605469 198.3125 114.601562 193.519531 C 115.777344 192.105469 116.953125 190.640625 118.351562 189.460938 C 120.351562 187.765625 122.855469 187.691406 124.664062 189.03125 C 126.578125 190.441406 126.609375 192.535156 125.996094 194.429688 C 125.5 195.980469 124.46875 197.457031 123.367188 198.695312 C 113.273438 210.0625 105.703125 223.019531 99.210938 236.648438 C 98.148438 238.882812 96.957031 240.554688 94.222656 240.5 C 91.78125 240.449219 89.847656 239.109375 88.964844 236.324219 C 88.324219 234.3125 87.917969 232.195312 87.679688 230.09375 C 86.515625 219.671875 85.464844 209.234375 84.332031 198.804688 C 84.046875 196.128906 83.621094 193.46875 83.296875 190.800781 C 83.179688 189.820312 82.945312 188.769531 83.183594 187.851562 C 83.398438 187.011719 84.042969 185.882812 84.730469 185.675781 C 85.390625 185.476562 86.53125 186.125 87.144531 186.726562 C 87.824219 187.390625 88.253906 188.378906 88.59375 189.300781 C 90.304688 193.949219 91.953125 198.621094 93.613281 203.289062 C 93.941406 204.203125 94.210938 205.140625 94.820312 207.03125 C 95.386719 204.8125 95.71875 203.519531 96.050781 202.226562 C 100.382812 185.148438 106.828125 169.003906 117.324219 154.675781 C 122.464844 147.652344 128.390625 141.394531 135.574219 136.34375 C 154.671875 122.90625 179.507812 123.328125 197.976562 137.515625 C 199.09375 138.378906 200.226562 139.222656 201.65625 140.304688 C 203.070312 138.277344 204.394531 136.320312 205.785156 134.410156 C 211.886719 126.042969 219.484375 119.703125 229.582031 116.605469 C 243.304688 112.394531 259.199219 117.609375 267.382812 129.324219 C 268.457031 130.859375 269.003906 132.886719 269.332031 134.769531 C 269.574219 136.128906 269.019531 137.855469 267.34375 138.0625 C 266.253906 138.199219 264.824219 137.707031 263.953125 136.996094 C 262.316406 135.671875 261.078125 133.867188 259.496094 132.460938 C 251.609375 125.480469 242.570312 122.183594 232.003906 124.578125 C 225.59375 126.027344 220.261719 129.570312 215.691406 134.183594 C 212.402344 137.507812 209.457031 141.140625 207.308594 145.53125 C 208 146.503906 208.613281 147.429688 209.296875 148.304688 C 223.023438 165.933594 230.96875 185.792969 231.734375 208.21875 C 231.921875 213.675781 230.828125 219.203125 230.082031 224.664062 C 229.820312 226.585938 228.925781 228.460938 228.148438 230.28125 C 222.25 244.09375 207.125 241.984375 200.597656 233.234375 C 196.425781 227.640625 194.25 221.214844 192.28125 214.714844 C 186.46875 195.542969 188.320312 176.535156 194.5 157.824219 C 195.722656 154.117188 195.085938 151.957031 192.476562 149.300781 C 174.882812 131.359375 150.023438 133.636719 134.339844 147.328125 C 125.757812 154.816406 119.140625 163.78125 113.984375 173.84375 C 109.109375 183.359375 105.246094 193.277344 102.726562 203.679688 C 102.402344 205.039062 102.246094 206.441406 102.007812 207.820312 C 102.226562 207.871094 102.457031 207.910156 102.683594 207.953125 Z M 201.304688 160.117188 C 200.597656 161.488281 200.109375 162.160156 199.882812 162.902344 C 194.203125 181.894531 193.105469 200.761719 201.425781 219.335938 C 203 222.84375 204.859375 226.183594 207.914062 228.667969 C 211.496094 231.582031 215.097656 230.667969 216.6875 226.398438 C 217.132812 225.214844 217.515625 223.9375 217.558594 222.691406 C 217.734375 217.609375 218.140625 212.5 217.777344 207.445312 C 216.804688 193.96875 212.207031 181.5 206.429688 169.4375 C 204.992188 166.433594 203.222656 163.582031 201.304688 160.117188 Z M 201.304688 160.117188 " fill-opacity="1" fill-rule="nonzero"/></g></g></g></g></svg>