<svg xmlns="http://www.w3.org/2000/svg" xmlns:xlink="http://www.w3.org/1999/xlink" width="500" zoomAndPan="magnify" viewBox="0 0 375 374.999991" height="500" preserveAspectRatio="xMidYMid meet" version="1.0"><defs><clipPath id="23e1031ac0"><path d="M 116 87 L 259 87 L 259 287 L 116 287 Z M 116 87 " clip-rule="nonzero"/></clipPath><clipPath id="0bcdab039f"><path d="M 65.675781 205.175781 L 256.0625 85.261719 L 309.222656 169.667969 L 118.839844 289.578125 Z M 65.675781 205.175781 " clip-rule="nonzero"/></clipPath><clipPath id="2410f19666"><path d="M 65.675781 205.175781 L 256.0625 85.261719 L 309.222656 169.667969 L 118.839844 289.578125 Z M 65.675781 205.175781 " clip-rule="nonzero"/></clipPath><clipPath id="221fab7c99"><path d="M 65.675781 205.175781 L 256.0625 85.261719 L 309.222656 169.667969 L 118.839844 289.578125 Z M 65.675781 205.175781 " clip-rule="nonzero"/></clipPath></defs><g clip-path="url(#23e1031ac0)"><g clip-path="url(#0bcdab039f)"><g clip-path="url(#2410f19666)"><g clip-path="url(#221fab7c99)"><path fill="#000000" d="M 170.777344 202.480469 C 175.632812 204.789062 179.992188 203.824219 184.300781 202.0625 C 191.328125 199.191406 196.855469 194.273438 201.875 188.789062 C 212.300781 177.386719 220.667969 164.527344 228.375 151.199219 C 236.738281 136.730469 243.519531 121.5625 248.488281 105.632812 C 249.910156 101.070312 250.414062 96.210938 251.164062 91.460938 C 251.542969 89.058594 252.65625 87.433594 254.585938 87.265625 C 256.542969 87.097656 258.117188 88.523438 258.273438 91.066406 C 258.410156 93.316406 258.398438 95.644531 257.992188 97.855469 C 251.390625 133.746094 238.035156 166.589844 213.492188 194.199219 C 209.46875 198.726562 204.761719 202.789062 199.851562 206.363281 C 189.921875 213.609375 179.109375 217.054688 166.925781 211.441406 C 157.511719 231.425781 146.929688 250.492188 133.582031 268.296875 C 134.484375 267.941406 135.417969 267.636719 136.285156 267.214844 C 144.328125 263.277344 152.316406 259.234375 160.414062 255.429688 C 162.691406 254.359375 165.265625 253.847656 167.753906 253.355469 C 168.484375 253.210938 169.867188 253.796875 170.117188 254.402344 C 170.382812 255.046875 169.738281 256.128906 169.351562 256.960938 C 169.199219 257.285156 168.664062 257.429688 168.308594 257.664062 C 156.738281 265.191406 145.195312 272.765625 133.585938 280.230469 C 130.84375 281.996094 127.898438 283.457031 125.007812 284.980469 C 124.140625 285.4375 123.164062 285.765625 122.199219 285.953125 C 117.839844 286.804688 115.253906 283.890625 116.664062 279.691406 C 117.570312 277 118.742188 274.394531 119.582031 271.679688 C 123.34375 259.53125 125.3125 247.058594 126.261719 234.40625 C 126.429688 232.152344 126.789062 229.882812 127.351562 227.699219 C 127.554688 226.910156 128.683594 225.726562 129.246094 225.804688 C 130.148438 225.929688 131.429688 226.796875 131.667969 227.609375 C 132.339844 229.898438 133.003906 232.332031 132.886719 234.675781 C 132.5625 241.621094 131.882812 248.542969 131.285156 255.472656 C 131.140625 257.144531 130.789062 258.804688 130.417969 261.234375 C 142.28125 243.492188 152.101562 225.464844 160.675781 206.507812 C 155.113281 200.058594 151.964844 192.550781 150.277344 184.375 C 148.910156 177.746094 148.667969 171.140625 150.433594 164.53125 C 151.636719 160.027344 153.929688 156.152344 157.207031 152.867188 C 159.925781 150.140625 163.25 148.667969 167.09375 148.378906 C 173.765625 147.875 177.996094 151.144531 179.132812 157.722656 C 180.136719 163.558594 179.617188 169.402344 178.292969 175.074219 C 176.421875 183.089844 174.046875 190.992188 171.875 198.9375 C 171.574219 200.015625 171.210938 201.078125 170.777344 202.480469 Z M 164.183594 196.96875 C 164.886719 195.6875 165.246094 195.242188 165.386719 194.734375 C 167.515625 186.925781 169.851562 179.15625 171.617188 171.261719 C 172.441406 167.578125 172.464844 163.636719 172.28125 159.835938 C 172.074219 155.464844 169.734375 153.996094 165.664062 155.539062 C 163.757812 156.261719 161.707031 157.519531 160.5625 159.132812 C 158.964844 161.382812 157.625 164.082031 157.109375 166.773438 C 155.035156 177.539062 158.3125 187.175781 164.183594 196.96875 Z M 164.183594 196.96875 " fill-opacity="1" fill-rule="nonzero"/></g></g></g></g></svg>