<svg xmlns="http://www.w3.org/2000/svg" xmlns:xlink="http://www.w3.org/1999/xlink" width="500" zoomAndPan="magnify" viewBox="0 0 375 374.999991" height="500" preserveAspectRatio="xMidYMid meet" version="1.0"><defs><clipPath id="20d384b0e4"><path d="M 72 87 L 302 87 L 302 277 L 72 277 Z M 72 87 " clip-rule="nonzero"/></clipPath><clipPath id="f64091f651"><path d="M 69.511719 276.140625 L 102.4375 67.21875 L 305.429688 99.210938 L 272.503906 308.132812 Z M 69.511719 276.140625 " clip-rule="nonzero"/></clipPath><clipPath id="f4fcc1e654"><path d="M 69.511719 276.140625 L 102.4375 67.21875 L 305.429688 99.210938 L 272.503906 308.132812 Z M 69.511719 276.140625 " clip-rule="nonzero"/></clipPath><clipPath id="7838f3d6bb"><path d="M 69.511719 276.140625 L 102.4375 67.21875 L 305.429688 99.210938 L 272.503906 308.132812 Z M 69.511719 276.140625 " clip-rule="nonzero"/></clipPath></defs><g clip-path="url(#20d384b0e4)"><g clip-path="url(#f64091f651)"><g clip-path="url(#f4fcc1e654)"><g clip-path="url(#7838f3d6bb)"><path fill="#000000" d="M 218.761719 87.355469 C 211.941406 87.695312 204.195312 89.125 200.183594 95.273438 C 197.265625 99.742188 196.957031 105.0625 197.792969 110.199219 C 197.542969 110.117188 197.292969 110.03125 197.046875 109.957031 C 190.113281 107.765625 183.011719 106.121094 175.804688 105.152344 C 169.101562 104.257812 162.246094 103.835938 155.515625 104.660156 C 149.023438 105.457031 142.488281 107.449219 137.21875 111.425781 C 131.371094 115.839844 127.847656 122.277344 126.101562 129.292969 C 124.316406 136.472656 124.363281 144.007812 124.695312 151.351562 C 125.066406 159.476562 125.898438 167.582031 127.1875 175.617188 C 128.207031 181.964844 129.519531 188.265625 131.09375 194.5 C 124.175781 194.269531 117.253906 194.765625 110.472656 196.171875 C 103.445312 197.628906 96.277344 200.003906 90.753906 204.75 C 79.265625 214.609375 78.285156 231.335938 83.554688 244.679688 C 84.859375 247.984375 86.5 251.144531 88.359375 254.171875 C 84.066406 254.429688 79.917969 255.78125 76.675781 258.816406 C 72.074219 263.121094 70.515625 270.914062 74.734375 276.042969 C 75.527344 277.003906 76.914062 277.316406 77.964844 276.550781 C 78.933594 275.847656 79.273438 274.292969 78.472656 273.324219 C 76.839844 271.335938 76.558594 268.976562 77.214844 266.445312 C 77.820312 264.101562 79.625 261.957031 81.945312 260.625 C 84.871094 258.949219 88.121094 258.511719 91.394531 258.742188 C 92.550781 260.371094 93.769531 261.957031 95.011719 263.503906 C 97.332031 266.382812 99.855469 269.800781 103.476562 271.078125 C 106.933594 272.300781 111.191406 271.207031 112.957031 267.785156 C 114.757812 264.292969 112.320312 260.917969 109.332031 259.203125 C 107.808594 258.328125 106.109375 257.789062 104.453125 257.210938 C 102.355469 256.472656 100.238281 255.777344 98.085938 255.21875 C 96.765625 254.875 95.40625 254.601562 94.019531 254.410156 C 93.375 253.457031 92.738281 252.492188 92.140625 251.507812 C 88.722656 245.929688 86.078125 239.703125 85.285156 233.175781 C 84.527344 226.9375 85.398438 220.46875 88.371094 214.882812 C 94.605469 203.191406 109.566406 200.171875 121.671875 199.257812 C 125.214844 198.992188 128.769531 198.964844 132.320312 199.144531 C 132.382812 199.375 132.445312 199.605469 132.507812 199.835938 C 134.585938 207.28125 136.972656 214.695312 140.210938 221.726562 C 146.449219 235.265625 156.683594 247.921875 171.472656 252.382812 C 177.925781 254.332031 185.003906 254.585938 191.230469 251.691406 C 197.296875 248.871094 201.515625 243.238281 200.910156 236.347656 C 200.273438 229.058594 194.898438 223.066406 189.773438 218.320312 C 184.546875 213.488281 178.691406 209.347656 172.457031 205.90625 C 161.257812 199.722656 148.667969 195.890625 135.898438 194.785156 C 135.402344 192.867188 134.929688 190.941406 134.488281 189.015625 C 131.121094 174.335938 129.074219 159.105469 129.117188 144.027344 C 129.136719 137.570312 129.792969 130.851562 132.40625 124.878906 C 134.804688 119.394531 138.976562 115.007812 144.367188 112.457031 C 155.464844 107.199219 168.78125 108.449219 180.507812 110.566406 C 186.804688 111.703125 192.988281 113.359375 199.015625 115.472656 C 199.054688 115.605469 199.09375 115.738281 199.132812 115.871094 C 201.289062 122.886719 204.777344 129.621094 208.367188 136.007812 C 215.640625 148.957031 224.992188 160.734375 235.925781 170.789062 C 241.257812 175.699219 248.027344 180.539062 255.695312 178.753906 C 259.214844 177.933594 262.234375 175.847656 263.84375 172.554688 C 265.453125 169.265625 265.136719 165.46875 264.0625 162.078125 C 261.894531 155.246094 256.625 149.550781 251.804688 144.425781 C 246.792969 139.09375 241.359375 134.183594 235.5 129.789062 C 225.542969 122.320312 214.5 116.269531 202.820312 111.941406 C 201.527344 106.546875 201.191406 99.777344 205.738281 95.835938 C 208.046875 93.839844 211.042969 92.917969 214.011719 92.449219 C 216.996094 91.980469 220.042969 91.84375 223.0625 91.859375 C 234.566406 91.929688 246.078125 95.136719 256.304688 100.53125 C 263.632812 104.398438 270.347656 109.488281 276.058594 115.523438 C 273.097656 121.183594 274.125 129.230469 278.410156 133.890625 C 282.058594 137.851562 287.433594 139.996094 292.824219 139.363281 C 294.300781 139.1875 295.265625 137.621094 294.71875 136.226562 C 291.714844 128.582031 287.371094 121.515625 282.042969 115.285156 C 282.085938 115.253906 282.128906 115.222656 282.167969 115.195312 C 282.328125 115.085938 282.488281 114.976562 282.65625 114.875 C 282.75 114.816406 282.785156 114.792969 282.796875 114.78125 C 282.820312 114.769531 282.867188 114.75 282.949219 114.707031 C 284.332031 114.027344 285.125 113.839844 286.628906 113.734375 C 286.824219 113.722656 287.019531 113.714844 287.21875 113.710938 C 287.265625 113.707031 287.421875 113.707031 287.507812 113.714844 C 287.796875 113.726562 288.085938 113.746094 288.371094 113.785156 C 288.765625 113.828125 289.152344 113.894531 289.542969 113.972656 C 289.699219 114.007812 289.851562 114.039062 290.007812 114.078125 C 290.015625 114.082031 290.449219 114.203125 290.449219 114.199219 C 292.074219 114.71875 293.164062 115.335938 294.324219 116.34375 C 295.328125 117.222656 296.125 118.402344 296.613281 119.800781 C 297.589844 122.613281 301.898438 120.933594 300.921875 118.117188 C 298.363281 110.738281 288.945312 107.207031 281.894531 110.121094 C 280.789062 110.578125 279.8125 111.179688 278.960938 111.894531 C 276.835938 109.683594 274.582031 107.589844 272.214844 105.640625 C 262.320312 97.476562 250.46875 91.660156 237.921875 88.941406 C 231.65625 87.574219 225.1875 87.039062 218.761719 87.355469 Z M 106.5625 262.957031 C 107.136719 263.234375 107.484375 263.421875 107.941406 263.78125 C 108.378906 264.128906 108.699219 264.480469 108.832031 264.808594 C 108.945312 265.089844 108.96875 265.390625 108.855469 265.648438 C 108.695312 266.023438 108.410156 266.320312 107.855469 266.621094 C 107 267.089844 105.96875 267.125 104.925781 266.6875 C 102.046875 265.476562 99.996094 262.351562 98.128906 259.992188 C 99.320312 260.324219 100.476562 260.699219 101.597656 261.082031 C 103.261719 261.660156 104.980469 262.195312 106.5625 262.957031 Z M 159.910156 205.117188 C 165.964844 207.492188 171.777344 210.503906 177.148438 214.175781 C 182.433594 217.789062 187.710938 221.988281 191.722656 227.019531 C 195.304688 231.511719 198.121094 237.632812 194.925781 242.863281 C 192.386719 247.019531 186.742188 249.015625 181.714844 249.265625 C 175.6875 249.570312 169.050781 247.183594 163.886719 243.832031 C 158.121094 240.085938 153.410156 235.089844 149.652344 229.367188 C 145.792969 223.5 142.988281 217.003906 140.65625 210.398438 C 139.394531 206.816406 138.246094 203.195312 137.207031 199.535156 C 144.976562 200.382812 152.644531 202.265625 159.910156 205.117188 Z M 249.4375 148.617188 C 253.648438 153.242188 258.546875 158.457031 260.039062 164.71875 C 260.683594 167.421875 260.476562 170.160156 258.515625 172.253906 C 256.855469 174.03125 253.988281 174.6875 251.625 174.488281 C 248.335938 174.210938 245.414062 172.578125 242.832031 170.605469 C 240.058594 168.480469 237.519531 166.019531 235.039062 163.554688 C 230.203125 158.746094 225.753906 153.558594 221.695312 148.074219 C 217.636719 142.601562 213.960938 136.835938 210.769531 130.8125 C 208.523438 126.570312 206.257812 122.140625 204.574219 117.570312 C 209.207031 119.445312 213.726562 121.601562 218.113281 124.015625 C 229.769531 130.429688 240.480469 138.773438 249.4375 148.617188 Z M 289.058594 134.710938 C 283.4375 133.800781 278.816406 128.910156 278.972656 122.820312 C 279.003906 121.671875 279.195312 120.539062 279.53125 119.453125 C 280.535156 120.683594 281.507812 121.9375 282.429688 123.230469 C 285.027344 126.851562 287.230469 130.675781 289.058594 134.710938 Z M 289.058594 134.710938 " fill-opacity="1" fill-rule="nonzero"/></g></g></g></g></svg>