<svg xmlns="http://www.w3.org/2000/svg" xmlns:xlink="http://www.w3.org/1999/xlink" width="500" zoomAndPan="magnify" viewBox="0 0 375 374.999991" height="500" preserveAspectRatio="xMidYMid meet" version="1.0"><defs><clipPath id="4b6b446351"><path d="M 84 100 L 278 100 L 278 268 L 84 268 Z M 84 100 " clip-rule="nonzero"/></clipPath><clipPath id="41fb9ceea5"><path d="M 294.191406 107.730469 L 247.9375 306.417969 L 80.660156 267.476562 L 126.914062 68.789062 Z M 294.191406 107.730469 " clip-rule="nonzero"/></clipPath><clipPath id="10afea96ab"><path d="M 294.191406 107.730469 L 247.9375 306.417969 L 80.660156 267.476562 L 126.914062 68.789062 Z M 294.191406 107.730469 " clip-rule="nonzero"/></clipPath><clipPath id="272afdbd86"><path d="M 294.191406 107.730469 L 247.9375 306.417969 L 80.660156 267.476562 L 126.914062 68.789062 Z M 294.191406 107.730469 " clip-rule="nonzero"/></clipPath></defs><g clip-path="url(#4b6b446351)"><g clip-path="url(#41fb9ceea5)"><g clip-path="url(#10afea96ab)"><g clip-path="url(#272afdbd86)"><path fill="#000000" d="M 90.492188 264.914062 C 94.480469 256.207031 97.234375 251.878906 103.832031 247.746094 C 103.929688 247.699219 104.015625 247.644531 104.101562 247.578125 C 105.175781 248.859375 106.289062 250.105469 107.496094 251.246094 C 113.621094 257.140625 129.515625 266.125 133.695312 253.9375 C 134.949219 247.757812 130.539062 241.867188 125.289062 239.097656 C 120.171875 236.558594 114.054688 236.910156 108.785156 238.832031 C 107.730469 239.234375 106.679688 239.691406 105.625 240.175781 C 102.304688 234.949219 100.140625 229.0625 99.496094 223.730469 C 98.59375 213.226562 102.003906 202.007812 108.898438 194.894531 C 114.082031 189.714844 121.152344 188.15625 130.148438 188.113281 C 136.695312 188.019531 139.863281 188.300781 146.542969 190.140625 C 147.753906 190.480469 148.957031 190.847656 150.140625 191.222656 C 150.269531 202.347656 153.890625 213.414062 160.59375 222.40625 C 166.699219 231.085938 173.882812 239.070312 182.339844 245.519531 C 187.417969 249.207031 194.320312 255.210938 200.757812 251.28125 C 213.625 240.621094 191.152344 213.199219 182.828125 204.644531 C 175.75 197.070312 166.757812 191.625 157.117188 187.9375 C 156.425781 187.648438 155.726562 187.398438 155.03125 187.121094 C 155.265625 183.710938 155.84375 180.308594 156.839844 177.019531 C 159.339844 166.894531 166.996094 158.652344 177.074219 155.546875 C 180.292969 154.203125 186.347656 153.824219 188.109375 154.0625 C 192.003906 154.46875 196.226562 156.066406 198.28125 156.886719 C 202.183594 158.441406 205.722656 160.324219 208.871094 162.34375 C 208.277344 164.65625 207.914062 167.003906 207.808594 169.371094 C 207.867188 177.773438 210.039062 186.699219 215.609375 193.191406 C 223.539062 202.710938 237.019531 197.847656 233.085938 184.933594 C 229.796875 174.777344 222.554688 166.433594 213.824219 160.492188 C 213.722656 160.425781 213.625 160.359375 213.515625 160.277344 C 214.140625 158.519531 214.921875 156.824219 215.855469 155.265625 C 219.675781 148.265625 227.230469 142.296875 234.1875 141.480469 C 239.871094 140.726562 245.558594 141.738281 250.761719 143.734375 C 250.765625 143.78125 250.753906 143.820312 250.757812 143.863281 C 250.886719 153.816406 254.132812 163.605469 259.042969 172.191406 C 260.605469 174.632812 262.429688 177.132812 265.039062 178.527344 C 267.96875 179.941406 271.78125 179.609375 274.234375 177.375 C 278.539062 173.023438 277.964844 165.703125 275.488281 160.546875 C 270.90625 151.902344 263.109375 144.964844 254.136719 141.097656 C 254.300781 133.449219 255.8125 125.65625 257.414062 117.496094 C 258.347656 112.128906 260.195312 106.890625 261.363281 101.636719 C 261.136719 100.078125 258.726562 99.933594 258.390625 101.546875 C 254.601562 114.207031 251.574219 127.445312 250.914062 139.820312 C 242.863281 136.914062 233.5625 136.109375 225.835938 140.238281 C 218.671875 143.96875 213.234375 150.546875 210.28125 158.0625 C 206.679688 155.78125 202.863281 153.859375 198.875 152.375 C 194.738281 150.722656 190.394531 149.46875 185.910156 149.496094 C 171.890625 149.726562 158.128906 158.75 153.550781 172.214844 C 151.894531 176.5 150.867188 180.984375 150.429688 185.507812 C 143.804688 183.40625 136.914062 182.21875 129.925781 182.550781 C 115.75 182.359375 104.066406 187.5 98.140625 201.023438 C 94.660156 208.789062 92.707031 217.539062 94.167969 226.023438 C 95.183594 231.988281 97.4375 237.78125 100.695312 242.90625 C 98.222656 244.492188 95.785156 246.429688 93.363281 248.902344 C 89.726562 253.152344 87.09375 258.195312 84.9375 263.332031 C 83.070312 267.609375 89.421875 269.574219 90.492188 264.914062 Z M 262.355469 150.414062 C 267.171875 154.542969 271.167969 159.253906 272.90625 163.894531 C 275.332031 171.546875 272.144531 177.191406 267.097656 175.570312 C 262.074219 172.941406 259.167969 165.320312 256.675781 158.511719 C 255.113281 154.097656 254.367188 149.6875 254.144531 145.238281 C 257.144531 146.726562 259.921875 148.503906 262.355469 150.414062 Z M 226.914062 180.890625 C 229.394531 185.363281 231.089844 191.039062 228.320312 193.171875 C 222.675781 197.757812 214.386719 188.441406 212.445312 177.292969 C 211.457031 173.484375 211.441406 169.058594 212.304688 164.75 C 213 165.253906 213.683594 165.769531 214.324219 166.277344 C 220.257812 170.894531 223.472656 174.605469 226.914062 180.890625 Z M 181.671875 211.089844 C 190.136719 220.390625 205.199219 240.804688 197.914062 247.570312 C 195.472656 249.335938 187.941406 244.5625 181.027344 238.371094 C 171.984375 230.210938 165.949219 222.9375 159.921875 212.199219 C 157.070312 206.636719 155.289062 199.910156 154.933594 192.941406 C 164.957031 196.71875 173.941406 202.246094 181.671875 211.089844 Z M 127.976562 249.316406 C 129.914062 255.007812 126.296875 255.980469 119.304688 252.878906 C 115.421875 251.058594 112 248.246094 109.105469 244.894531 C 112.082031 243.523438 114.898438 242.863281 119.019531 243.050781 C 121.5625 243.183594 126.296875 245.34375 127.976562 249.316406 Z M 127.976562 249.316406 " fill-opacity="1" fill-rule="nonzero"/></g></g></g></g></svg>