<svg xmlns="http://www.w3.org/2000/svg" xmlns:xlink="http://www.w3.org/1999/xlink" width="500" zoomAndPan="magnify" viewBox="0 0 375 374.999991" height="500" preserveAspectRatio="xMidYMid meet" version="1.0"><defs><g/></defs><g fill="#372a28" fill-opacity="1"><g transform="translate(45.768201, 200.898277)"><g><path d="M 9.859375 0.46875 C 8.347656 0.46875 6.9375 0.0664062 5.625 -0.734375 C 4.320312 -1.546875 3.28125 -2.664062 2.5 -4.09375 C 1.726562 -5.53125 1.34375 -7.132812 1.34375 -8.90625 C 1.34375 -10.726562 1.71875 -12.351562 2.46875 -13.78125 C 3.21875 -15.21875 4.234375 -16.332031 5.515625 -17.125 C 6.796875 -17.925781 8.207031 -18.328125 9.75 -18.328125 C 11.882812 -18.328125 13.753906 -17.519531 15.359375 -15.90625 L 15.359375 -17.859375 L 19.84375 -17.859375 L 19.84375 0 L 15.359375 0 L 15.359375 -1.890625 C 14.554688 -1.097656 13.710938 -0.503906 12.828125 -0.109375 C 11.941406 0.273438 10.953125 0.46875 9.859375 0.46875 Z M 10.65625 -3.625 C 11.570312 -3.625 12.40625 -3.84375 13.15625 -4.28125 C 13.914062 -4.71875 14.503906 -5.34375 14.921875 -6.15625 C 15.347656 -6.976562 15.5625 -7.921875 15.5625 -8.984375 C 15.5625 -10.015625 15.347656 -10.925781 14.921875 -11.71875 C 14.503906 -12.507812 13.925781 -13.125 13.1875 -13.5625 C 12.445312 -14 11.601562 -14.21875 10.65625 -14.21875 C 9.695312 -14.21875 8.851562 -13.984375 8.125 -13.515625 C 7.394531 -13.046875 6.832031 -12.410156 6.4375 -11.609375 C 6.039062 -10.816406 5.84375 -9.925781 5.84375 -8.9375 C 5.84375 -7.9375 6.050781 -7.03125 6.46875 -6.21875 C 6.882812 -5.414062 7.457031 -4.78125 8.1875 -4.3125 C 8.914062 -3.851562 9.738281 -3.625 10.65625 -3.625 Z M 10.65625 -3.625 "/></g></g></g><g fill="#372a28" fill-opacity="1"><g transform="translate(67.284292, 200.898277)"><g><path d="M 6.71875 -17.859375 L 6.71875 -16.046875 C 7.644531 -16.804688 8.519531 -17.375 9.34375 -17.75 C 10.175781 -18.132812 11.0625 -18.328125 12 -18.328125 C 13.125 -18.328125 14.148438 -18.078125 15.078125 -17.578125 C 16.003906 -17.085938 16.742188 -16.378906 17.296875 -15.453125 C 17.847656 -14.523438 18.125 -13.441406 18.125 -12.203125 L 18.125 0 L 13.65625 0 L 13.65625 -8.4375 C 13.65625 -9.78125 13.585938 -10.851562 13.453125 -11.65625 C 13.316406 -12.46875 13.03125 -13.097656 12.59375 -13.546875 C 12.15625 -13.992188 11.5 -14.21875 10.625 -14.21875 C 9.882812 -14.21875 9.21875 -14.007812 8.625 -13.59375 C 8.03125 -13.1875 7.5625 -12.578125 7.21875 -11.765625 C 6.882812 -10.960938 6.71875 -9.976562 6.71875 -8.8125 L 6.71875 0 L 2.25 0 L 2.25 -17.859375 Z M 6.71875 -17.859375 "/></g></g></g><g fill="#372a28" fill-opacity="1"><g transform="translate(86.884085, 200.898277)"><g><path d="M 2.796875 -13.984375 L 0.5 -13.984375 L 0.5 -17.859375 L 2.796875 -17.859375 L 2.796875 -24.4375 L 7.265625 -24.4375 L 7.265625 -17.859375 L 9.921875 -17.859375 L 9.921875 -13.984375 L 7.265625 -13.984375 L 7.265625 0 L 2.796875 0 Z M 2.796875 -13.984375 "/></g></g></g><g fill="#372a28" fill-opacity="1"><g transform="translate(96.398165, 200.898277)"><g><path d="M 6.765625 -24.75 L 6.765625 -16.046875 C 7.660156 -16.804688 8.523438 -17.375 9.359375 -17.75 C 10.203125 -18.132812 11.09375 -18.328125 12.03125 -18.328125 C 13.175781 -18.328125 14.210938 -18.078125 15.140625 -17.578125 C 16.078125 -17.085938 16.8125 -16.347656 17.34375 -15.359375 C 17.882812 -14.378906 18.15625 -13.191406 18.15625 -11.796875 L 18.15625 0 L 13.6875 0 L 13.6875 -8.4375 C 13.6875 -9.757812 13.609375 -10.828125 13.453125 -11.640625 C 13.296875 -12.460938 13 -13.097656 12.5625 -13.546875 C 12.125 -13.992188 11.476562 -14.21875 10.625 -14.21875 C 9.820312 -14.21875 9.128906 -13.988281 8.546875 -13.53125 C 7.960938 -13.070312 7.519531 -12.460938 7.21875 -11.703125 C 6.914062 -10.941406 6.765625 -10.113281 6.765625 -9.21875 L 6.765625 0 L 2.28125 0 L 2.28125 -24.75 Z M 6.765625 -24.75 "/></g></g></g><g fill="#372a28" fill-opacity="1"><g transform="translate(116.031581, 200.898277)"><g><path d="M 10.71875 0.46875 C 8.976562 0.46875 7.390625 0.0507812 5.953125 -0.78125 C 4.515625 -1.625 3.382812 -2.769531 2.5625 -4.21875 C 1.75 -5.664062 1.34375 -7.238281 1.34375 -8.9375 C 1.34375 -10.664062 1.769531 -12.25 2.625 -13.6875 C 3.476562 -15.125 4.617188 -16.253906 6.046875 -17.078125 C 7.484375 -17.910156 9.039062 -18.328125 10.71875 -18.328125 C 12.40625 -18.328125 13.960938 -17.910156 15.390625 -17.078125 C 16.828125 -16.253906 17.972656 -15.125 18.828125 -13.6875 C 19.679688 -12.25 20.109375 -10.664062 20.109375 -8.9375 C 20.109375 -7.238281 19.695312 -5.664062 18.875 -4.21875 C 18.0625 -2.769531 16.9375 -1.625 15.5 -0.78125 C 14.0625 0.0507812 12.46875 0.46875 10.71875 0.46875 Z M 10.71875 -3.765625 C 11.625 -3.765625 12.453125 -3.976562 13.203125 -4.40625 C 13.953125 -4.832031 14.539062 -5.4375 14.96875 -6.21875 C 15.394531 -7 15.609375 -7.894531 15.609375 -8.90625 C 15.609375 -9.914062 15.398438 -10.8125 14.984375 -11.59375 C 14.566406 -12.382812 13.988281 -13 13.25 -13.4375 C 12.507812 -13.875 11.664062 -14.09375 10.71875 -14.09375 C 9.78125 -14.09375 8.941406 -13.875 8.203125 -13.4375 C 7.460938 -13 6.882812 -12.382812 6.46875 -11.59375 C 6.050781 -10.8125 5.84375 -9.914062 5.84375 -8.90625 C 5.84375 -7.894531 6.054688 -7 6.484375 -6.21875 C 6.910156 -5.4375 7.5 -4.832031 8.25 -4.40625 C 9 -3.976562 9.820312 -3.765625 10.71875 -3.765625 Z M 10.71875 -3.765625 "/></g></g></g><g fill="#372a28" fill-opacity="1"><g transform="translate(136.908897, 200.898277)"><g><path d="M 6.71875 -17.859375 L 6.71875 -16.046875 C 7.644531 -16.804688 8.519531 -17.375 9.34375 -17.75 C 10.175781 -18.132812 11.0625 -18.328125 12 -18.328125 C 13.125 -18.328125 14.148438 -18.078125 15.078125 -17.578125 C 16.003906 -17.085938 16.742188 -16.378906 17.296875 -15.453125 C 17.847656 -14.523438 18.125 -13.441406 18.125 -12.203125 L 18.125 0 L 13.65625 0 L 13.65625 -8.4375 C 13.65625 -9.78125 13.585938 -10.851562 13.453125 -11.65625 C 13.316406 -12.46875 13.03125 -13.097656 12.59375 -13.546875 C 12.15625 -13.992188 11.5 -14.21875 10.625 -14.21875 C 9.882812 -14.21875 9.21875 -14.007812 8.625 -13.59375 C 8.03125 -13.1875 7.5625 -12.578125 7.21875 -11.765625 C 6.882812 -10.960938 6.71875 -9.976562 6.71875 -8.8125 L 6.71875 0 L 2.25 0 L 2.25 -17.859375 Z M 6.71875 -17.859375 "/></g></g></g><g fill="#372a28" fill-opacity="1"><g transform="translate(156.508695, 200.898277)"><g><path d="M 14.65625 -17.859375 L 19.265625 -17.859375 L 8.03125 6.515625 L 3.4375 6.515625 L 7.4375 -1.609375 L 0.296875 -17.859375 L 4.875 -17.859375 L 9.6875 -6.484375 Z M 14.65625 -17.859375 "/></g></g></g><g fill="#372a28" fill-opacity="1"><g transform="translate(175.441374, 200.898277)"><g/></g></g><g fill="#372a28" fill-opacity="1"><g transform="translate(184.182203, 200.898277)"><g><path d="M 6.421875 0.46875 C 5.410156 0.46875 4.429688 0.242188 3.484375 -0.203125 C 2.546875 -0.648438 1.765625 -1.273438 1.140625 -2.078125 L 2.59375 -3.734375 C 3.78125 -2.410156 5.023438 -1.75 6.328125 -1.75 C 6.910156 -1.75 7.453125 -1.875 7.953125 -2.125 C 8.453125 -2.382812 8.851562 -2.742188 9.15625 -3.203125 C 9.457031 -3.671875 9.609375 -4.171875 9.609375 -4.703125 C 9.609375 -5.304688 9.457031 -5.820312 9.15625 -6.25 C 8.851562 -6.675781 8.367188 -7.070312 7.703125 -7.4375 C 6.285156 -8.195312 5.207031 -8.820312 4.46875 -9.3125 C 3.726562 -9.800781 3.125 -10.394531 2.65625 -11.09375 C 2.1875 -11.789062 1.953125 -12.617188 1.953125 -13.578125 C 1.953125 -14.503906 2.171875 -15.320312 2.609375 -16.03125 C 3.046875 -16.75 3.640625 -17.3125 4.390625 -17.71875 C 5.140625 -18.125 5.960938 -18.328125 6.859375 -18.328125 C 7.773438 -18.328125 8.625 -18.125 9.40625 -17.71875 C 10.195312 -17.3125 10.992188 -16.707031 11.796875 -15.90625 L 10.328125 -14.390625 C 9.742188 -14.953125 9.164062 -15.378906 8.59375 -15.671875 C 8.019531 -15.960938 7.394531 -16.109375 6.71875 -16.109375 C 6.226562 -16.109375 5.78125 -16 5.375 -15.78125 C 4.976562 -15.570312 4.65625 -15.285156 4.40625 -14.921875 C 4.15625 -14.566406 4.03125 -14.164062 4.03125 -13.71875 C 4.03125 -13.113281 4.207031 -12.585938 4.5625 -12.140625 C 4.925781 -11.691406 5.476562 -11.265625 6.21875 -10.859375 C 7.65625 -10.078125 8.738281 -9.429688 9.46875 -8.921875 C 10.195312 -8.421875 10.765625 -7.84375 11.171875 -7.1875 C 11.585938 -6.539062 11.796875 -5.75 11.796875 -4.8125 C 11.796875 -3.863281 11.570312 -2.984375 11.125 -2.171875 C 10.675781 -1.367188 10.039062 -0.726562 9.21875 -0.25 C 8.40625 0.226562 7.472656 0.46875 6.421875 0.46875 Z M 6.421875 0.46875 "/></g></g></g><g fill="#372a28" fill-opacity="1"><g transform="translate(196.654753, 200.898277)"><g><path d="M 11.03125 0.4375 C 9.101562 0.4375 7.4375 0.0195312 6.03125 -0.8125 C 4.632812 -1.65625 3.566406 -2.789062 2.828125 -4.21875 C 2.085938 -5.644531 1.71875 -7.195312 1.71875 -8.875 C 1.71875 -10.507812 2.097656 -12.050781 2.859375 -13.5 C 3.617188 -14.945312 4.695312 -16.113281 6.09375 -17 C 7.5 -17.882812 9.097656 -18.328125 10.890625 -18.328125 C 12.617188 -18.328125 14.1875 -17.921875 15.59375 -17.109375 C 17.007812 -16.304688 18.117188 -15.1875 18.921875 -13.75 C 19.734375 -12.3125 20.140625 -10.695312 20.140625 -8.90625 L 20.140625 -8.75 L 4.0625 -8.75 C 4.113281 -7.375 4.4375 -6.160156 5.03125 -5.109375 C 5.625 -4.054688 6.4375 -3.238281 7.46875 -2.65625 C 8.5 -2.070312 9.6875 -1.78125 11.03125 -1.78125 C 12.625 -1.78125 13.921875 -2.148438 14.921875 -2.890625 C 15.929688 -3.628906 16.832031 -4.640625 17.625 -5.921875 L 19.53125 -4.90625 C 18.65625 -3.226562 17.492188 -1.914062 16.046875 -0.96875 C 14.609375 -0.03125 12.9375 0.4375 11.03125 0.4375 Z M 17.625 -10.765625 C 17.175781 -12.535156 16.347656 -13.867188 15.140625 -14.765625 C 13.941406 -15.660156 12.535156 -16.109375 10.921875 -16.109375 C 9.285156 -16.109375 7.898438 -15.664062 6.765625 -14.78125 C 5.640625 -13.894531 4.816406 -12.554688 4.296875 -10.765625 Z M 17.625 -10.765625 "/></g></g></g><g fill="#372a28" fill-opacity="1"><g transform="translate(217.935521, 200.898277)"><g><path d="M 4.96875 -17.859375 L 4.96875 -15.265625 C 5.664062 -16.273438 6.390625 -17.035156 7.140625 -17.546875 C 7.890625 -18.066406 8.703125 -18.328125 9.578125 -18.328125 C 10.003906 -18.328125 10.378906 -18.273438 10.703125 -18.171875 C 11.035156 -18.066406 11.347656 -17.914062 11.640625 -17.71875 L 10.421875 -15.765625 C 9.972656 -15.992188 9.570312 -16.109375 9.21875 -16.109375 C 8.40625 -16.109375 7.679688 -15.8125 7.046875 -15.21875 C 6.410156 -14.625 5.90625 -13.785156 5.53125 -12.703125 C 5.15625 -11.628906 4.96875 -10.398438 4.96875 -9.015625 L 4.96875 0 L 2.6875 0 L 2.6875 -17.859375 Z M 4.96875 -17.859375 "/></g></g></g><g fill="#372a28" fill-opacity="1"><g transform="translate(228.390922, 200.898277)"><g><path d="M 11.03125 0.46875 C 9.28125 0.46875 7.691406 0.0507812 6.265625 -0.78125 C 4.847656 -1.625 3.734375 -2.765625 2.921875 -4.203125 C 2.117188 -5.640625 1.71875 -7.195312 1.71875 -8.875 C 1.71875 -10.5625 2.117188 -12.128906 2.921875 -13.578125 C 3.734375 -15.035156 4.847656 -16.191406 6.265625 -17.046875 C 7.691406 -17.898438 9.28125 -18.328125 11.03125 -18.328125 C 12.78125 -18.328125 14.363281 -17.898438 15.78125 -17.046875 C 17.207031 -16.191406 18.320312 -15.035156 19.125 -13.578125 C 19.9375 -12.128906 20.34375 -10.5625 20.34375 -8.875 C 20.34375 -7.195312 19.9375 -5.640625 19.125 -4.203125 C 18.320312 -2.765625 17.207031 -1.625 15.78125 -0.78125 C 14.363281 0.0507812 12.78125 0.46875 11.03125 0.46875 Z M 11.03125 -1.75 C 12.332031 -1.75 13.515625 -2.066406 14.578125 -2.703125 C 15.640625 -3.347656 16.472656 -4.210938 17.078125 -5.296875 C 17.679688 -6.378906 17.984375 -7.5625 17.984375 -8.84375 C 17.984375 -10.144531 17.671875 -11.347656 17.046875 -12.453125 C 16.421875 -13.566406 15.570312 -14.453125 14.5 -15.109375 C 13.4375 -15.773438 12.28125 -16.109375 11.03125 -16.109375 C 9.769531 -16.109375 8.609375 -15.773438 7.546875 -15.109375 C 6.484375 -14.453125 5.632812 -13.566406 5 -12.453125 C 4.375 -11.347656 4.0625 -10.144531 4.0625 -8.84375 C 4.0625 -7.539062 4.363281 -6.351562 4.96875 -5.28125 C 5.582031 -4.207031 6.414062 -3.347656 7.46875 -2.703125 C 8.519531 -2.066406 9.707031 -1.75 11.03125 -1.75 Z M 11.03125 -1.75 "/></g></g></g><g fill="#372a28" fill-opacity="1"><g transform="translate(249.839762, 200.898277)"><g><path d="M 4.46875 -21.421875 C 3.957031 -21.421875 3.515625 -21.609375 3.140625 -21.984375 C 2.773438 -22.367188 2.59375 -22.816406 2.59375 -23.328125 C 2.59375 -23.847656 2.773438 -24.289062 3.140625 -24.65625 C 3.515625 -25.03125 3.957031 -25.21875 4.46875 -25.21875 C 4.988281 -25.21875 5.4375 -25.03125 5.8125 -24.65625 C 6.195312 -24.289062 6.390625 -23.847656 6.390625 -23.328125 C 6.390625 -22.816406 6.195312 -22.367188 5.8125 -21.984375 C 5.4375 -21.609375 4.988281 -21.421875 4.46875 -21.421875 Z M 2.59375 7.03125 C 2.144531 7.03125 1.710938 6.976562 1.296875 6.875 C 0.878906 6.769531 0.445312 6.628906 0 6.453125 L 0 4.375 C 0.582031 4.664062 1.128906 4.8125 1.640625 4.8125 C 2.179688 4.8125 2.601562 4.628906 2.90625 4.265625 C 3.207031 3.910156 3.359375 3.382812 3.359375 2.6875 L 3.359375 -17.859375 L 5.65625 -17.859375 L 5.65625 2.6875 C 5.65625 5.582031 4.632812 7.03125 2.59375 7.03125 Z M 2.59375 7.03125 "/></g></g></g><g fill="#372a28" fill-opacity="1"><g transform="translate(257.471165, 200.898277)"><g><path d="M 10.859375 0.4375 C 9.160156 0.4375 7.613281 0.0078125 6.21875 -0.84375 C 4.832031 -1.695312 3.734375 -2.84375 2.921875 -4.28125 C 2.117188 -5.726562 1.71875 -7.296875 1.71875 -8.984375 C 1.71875 -10.660156 2.125 -12.207031 2.9375 -13.625 C 3.757812 -15.050781 4.875 -16.191406 6.28125 -17.046875 C 7.695312 -17.898438 9.242188 -18.328125 10.921875 -18.328125 C 12.378906 -18.328125 13.710938 -18.007812 14.921875 -17.375 C 16.140625 -16.75 17.1875 -15.820312 18.0625 -14.59375 L 18.0625 -17.859375 L 20.3125 -17.859375 L 20.3125 0 L 18.0625 0 L 18.0625 -3.0625 C 17.09375 -1.894531 16.003906 -1.019531 14.796875 -0.4375 C 13.585938 0.144531 12.273438 0.4375 10.859375 0.4375 Z M 11.09375 -1.640625 C 12.332031 -1.640625 13.5 -1.9375 14.59375 -2.53125 C 15.6875 -3.132812 16.5625 -3.976562 17.21875 -5.0625 C 17.882812 -6.144531 18.21875 -7.40625 18.21875 -8.84375 C 18.21875 -10.207031 17.90625 -11.4375 17.28125 -12.53125 C 16.65625 -13.632812 15.800781 -14.503906 14.71875 -15.140625 C 13.644531 -15.785156 12.445312 -16.109375 11.125 -16.109375 C 9.800781 -16.109375 8.597656 -15.773438 7.515625 -15.109375 C 6.429688 -14.453125 5.582031 -13.570312 4.96875 -12.46875 C 4.363281 -11.375 4.0625 -10.1875 4.0625 -8.90625 C 4.0625 -7.632812 4.367188 -6.441406 4.984375 -5.328125 C 5.609375 -4.222656 6.457031 -3.332031 7.53125 -2.65625 C 8.601562 -1.976562 9.789062 -1.640625 11.09375 -1.640625 Z M 11.09375 -1.640625 "/></g></g></g><g fill="#372a28" fill-opacity="1"><g transform="translate(279.894978, 200.898277)"><g><path d="M 4.5 -24.75 L 4.5 0 L 2.21875 0 L 2.21875 -24.75 Z M 4.5 -24.75 "/></g></g></g><g fill="#372a28" fill-opacity="1"><g transform="translate(286.04714, 200.898277)"><g><path d="M 11.03125 0.4375 C 9.101562 0.4375 7.4375 0.0195312 6.03125 -0.8125 C 4.632812 -1.65625 3.566406 -2.789062 2.828125 -4.21875 C 2.085938 -5.644531 1.71875 -7.195312 1.71875 -8.875 C 1.71875 -10.507812 2.097656 -12.050781 2.859375 -13.5 C 3.617188 -14.945312 4.695312 -16.113281 6.09375 -17 C 7.5 -17.882812 9.097656 -18.328125 10.890625 -18.328125 C 12.617188 -18.328125 14.1875 -17.921875 15.59375 -17.109375 C 17.007812 -16.304688 18.117188 -15.1875 18.921875 -13.75 C 19.734375 -12.3125 20.140625 -10.695312 20.140625 -8.90625 L 20.140625 -8.75 L 4.0625 -8.75 C 4.113281 -7.375 4.4375 -6.160156 5.03125 -5.109375 C 5.625 -4.054688 6.4375 -3.238281 7.46875 -2.65625 C 8.5 -2.070312 9.6875 -1.78125 11.03125 -1.78125 C 12.625 -1.78125 13.921875 -2.148438 14.921875 -2.890625 C 15.929688 -3.628906 16.832031 -4.640625 17.625 -5.921875 L 19.53125 -4.90625 C 18.65625 -3.226562 17.492188 -1.914062 16.046875 -0.96875 C 14.609375 -0.03125 12.9375 0.4375 11.03125 0.4375 Z M 17.625 -10.765625 C 17.175781 -12.535156 16.347656 -13.867188 15.140625 -14.765625 C 13.941406 -15.660156 12.535156 -16.109375 10.921875 -16.109375 C 9.285156 -16.109375 7.898438 -15.664062 6.765625 -14.78125 C 5.640625 -13.894531 4.816406 -12.554688 4.296875 -10.765625 Z M 17.625 -10.765625 "/></g></g></g><g fill="#372a28" fill-opacity="1"><g transform="translate(307.32791, 200.898277)"><g><path d="M 6.421875 0.46875 C 5.410156 0.46875 4.429688 0.242188 3.484375 -0.203125 C 2.546875 -0.648438 1.765625 -1.273438 1.140625 -2.078125 L 2.59375 -3.734375 C 3.78125 -2.410156 5.023438 -1.75 6.328125 -1.75 C 6.910156 -1.75 7.453125 -1.875 7.953125 -2.125 C 8.453125 -2.382812 8.851562 -2.742188 9.15625 -3.203125 C 9.457031 -3.671875 9.609375 -4.171875 9.609375 -4.703125 C 9.609375 -5.304688 9.457031 -5.820312 9.15625 -6.25 C 8.851562 -6.675781 8.367188 -7.070312 7.703125 -7.4375 C 6.285156 -8.195312 5.207031 -8.820312 4.46875 -9.3125 C 3.726562 -9.800781 3.125 -10.394531 2.65625 -11.09375 C 2.1875 -11.789062 1.953125 -12.617188 1.953125 -13.578125 C 1.953125 -14.503906 2.171875 -15.320312 2.609375 -16.03125 C 3.046875 -16.75 3.640625 -17.3125 4.390625 -17.71875 C 5.140625 -18.125 5.960938 -18.328125 6.859375 -18.328125 C 7.773438 -18.328125 8.625 -18.125 9.40625 -17.71875 C 10.195312 -17.3125 10.992188 -16.707031 11.796875 -15.90625 L 10.328125 -14.390625 C 9.742188 -14.953125 9.164062 -15.378906 8.59375 -15.671875 C 8.019531 -15.960938 7.394531 -16.109375 6.71875 -16.109375 C 6.226562 -16.109375 5.78125 -16 5.375 -15.78125 C 4.976562 -15.570312 4.65625 -15.285156 4.40625 -14.921875 C 4.15625 -14.566406 4.03125 -14.164062 4.03125 -13.71875 C 4.03125 -13.113281 4.207031 -12.585938 4.5625 -12.140625 C 4.925781 -11.691406 5.476562 -11.265625 6.21875 -10.859375 C 7.65625 -10.078125 8.738281 -9.429688 9.46875 -8.921875 C 10.195312 -8.421875 10.765625 -7.84375 11.171875 -7.1875 C 11.585938 -6.539062 11.796875 -5.75 11.796875 -4.8125 C 11.796875 -3.863281 11.570312 -2.984375 11.125 -2.171875 C 10.675781 -1.367188 10.039062 -0.726562 9.21875 -0.25 C 8.40625 0.226562 7.472656 0.46875 6.421875 0.46875 Z M 6.421875 0.46875 "/></g></g></g><g fill="#ffc61a" fill-opacity="1"><g transform="translate(319.818228, 200.898277)"><g><path d="M 4.703125 0.46875 C 4.234375 0.46875 3.800781 0.347656 3.40625 0.109375 C 3.019531 -0.117188 2.707031 -0.425781 2.46875 -0.8125 C 2.238281 -1.207031 2.125 -1.644531 2.125 -2.125 C 2.125 -2.59375 2.238281 -3.019531 2.46875 -3.40625 C 2.707031 -3.800781 3.019531 -4.109375 3.40625 -4.328125 C 3.800781 -4.554688 4.234375 -4.671875 4.703125 -4.671875 C 5.171875 -4.671875 5.601562 -4.554688 6 -4.328125 C 6.394531 -4.109375 6.703125 -3.800781 6.921875 -3.40625 C 7.148438 -3.019531 7.265625 -2.59375 7.265625 -2.125 C 7.265625 -1.644531 7.148438 -1.207031 6.921875 -0.8125 C 6.703125 -0.425781 6.394531 -0.117188 6 0.109375 C 5.601562 0.347656 5.171875 0.46875 4.703125 0.46875 Z M 4.703125 0.46875 "/></g></g></g></svg>