<svg xmlns="http://www.w3.org/2000/svg" xmlns:xlink="http://www.w3.org/1999/xlink" width="500" zoomAndPan="magnify" viewBox="0 0 375 374.999991" height="500" preserveAspectRatio="xMidYMid meet" version="1.0"><defs><clipPath id="dee10ccf12"><path d="M 95.246094 98 L 279.746094 98 L 279.746094 277 L 95.246094 277 Z M 95.246094 98 " clip-rule="nonzero"/></clipPath></defs><rect x="-37.5" width="450" fill="#ffffff" y="-37.499999" height="449.999989" fill-opacity="1"/><rect x="-37.5" width="450" fill="#ffffff" y="-37.499999" height="449.999989" fill-opacity="1"/><g clip-path="url(#dee10ccf12)"><path fill="#000000" d="M 276.371094 98.359375 C 271.542969 99.757812 264.957031 105.707031 260.1875 110.355469 C 259.464844 111.085938 258.757812 111.832031 258.058594 112.574219 C 257.359375 110.972656 256.515625 109.429688 255.472656 107.964844 C 253.996094 105.867188 252.429688 103.648438 250.050781 102.515625 C 240.226562 98.648438 221.96875 112.222656 214.980469 118.894531 C 213.78125 120.050781 212.613281 121.238281 211.492188 122.453125 C 210.222656 119.109375 208.40625 116.125 205.761719 113.902344 C 203.394531 112.039062 200.535156 110.492188 197.445312 110.574219 C 191.808594 110.710938 186.375 112.722656 181.386719 115.242188 C 170.347656 120.964844 161.1875 130.15625 153.546875 140.660156 C 152.242188 138.488281 150.503906 136.65625 148.113281 135.601562 C 146.285156 134.882812 144.132812 134.414062 142.304688 135.386719 C 138.90625 136.90625 136.421875 139.828125 133.941406 142.503906 C 126.691406 150.769531 121.554688 160.609375 116.636719 170.382812 C 112.230469 179.390625 108.847656 188.855469 106.125 198.492188 C 104.15625 205.394531 102.246094 212.320312 100.851562 219.359375 C 98.652344 232.429688 97.476562 245.648438 96.34375 258.84375 C 96.011719 264.609375 95.199219 270.492188 95.933594 276.238281 C 96.445312 277.359375 98.164062 277.121094 98.195312 275.78125 C 97.613281 265.378906 99.25 254.972656 100.074219 244.617188 C 101.023438 235.769531 101.835938 228.261719 103.308594 219.90625 C 105.035156 211.390625 107.4375 203.027344 109.933594 194.714844 C 113.363281 183.269531 117.597656 173.519531 123.441406 162.945312 C 127.628906 155.34375 131.5625 148.789062 137.269531 142.800781 C 139.625 140.15625 143.230469 137.183594 145.003906 137.605469 C 147.90625 137.847656 150.082031 140.136719 151.648438 143.328125 C 145.183594 152.691406 139.867188 162.910156 135.484375 172.535156 C 128.234375 189.074219 122.410156 206.550781 120.753906 224.621094 C 120.46875 230.117188 120.179688 236.066406 122.777344 241.082031 C 123.828125 243.378906 126.390625 245.246094 128.898438 243.90625 C 133.792969 241.414062 136.160156 235.90625 138.859375 231.398438 C 146.304688 217.894531 151.453125 203.230469 154.574219 188.148438 C 157.285156 175.386719 159.378906 162.019531 156.667969 149.085938 C 156.269531 147.402344 155.777344 145.617188 155.113281 143.910156 C 161.0625 135.558594 167.832031 128.09375 175.542969 122.464844 C 182.921875 117.507812 190.34375 113.753906 198.234375 113.765625 C 201.152344 114.097656 205.441406 116.71875 207.226562 120.851562 C 207.925781 122.257812 208.496094 123.746094 208.976562 125.300781 C 202 133.429688 196.324219 142.617188 191.339844 152.09375 C 181.960938 170.246094 174.179688 190.492188 175.621094 211.253906 C 176.320312 215.832031 178.4375 222.585938 184.050781 222.425781 C 189.578125 221.828125 196.097656 208.917969 198.523438 204.171875 C 207.558594 185.515625 214.46875 165.292969 214.421875 144.359375 C 214.386719 138.898438 214.203125 132.226562 212.683594 126.207031 C 218.355469 119.890625 224.863281 114.453125 232.722656 110.023438 C 237.925781 106.992188 244.046875 104.667969 247.855469 105.332031 C 249.433594 105.753906 250.898438 107.3125 252.375 109.53125 C 253.621094 111.339844 254.617188 113.34375 255.382812 115.492188 C 243.910156 128.253906 234.414062 143.066406 229.335938 159.511719 C 226.878906 167.671875 225.207031 176.519531 227.175781 184.953125 C 227.90625 188.089844 230.046875 191.601562 233.671875 191.410156 C 242.855469 190.117188 252.375 167.179688 255.277344 160.210938 C 258.894531 151.089844 260.839844 141.28125 261.125 131.484375 C 261.136719 126.617188 260.839844 121.558594 259.546875 116.820312 C 265.21875 110.734375 271.691406 104.90625 276.601562 102.710938 C 277.390625 102.402344 278.304688 102.242188 278.738281 101.429688 C 279.652344 99.917969 278.121094 97.8125 276.371094 98.359375 Z M 154.886719 158.882812 C 155.125 169.113281 153.707031 177.195312 151.589844 186.933594 C 149.953125 194.375 148.066406 201.765625 145.484375 208.941406 C 142.347656 217.914062 130.875 243.679688 126.335938 241.011719 C 122.71875 237.613281 123.339844 224.117188 124.769531 216.988281 C 128.210938 197.796875 134.71875 180.398438 143.195312 163.746094 C 146.167969 157.964844 149.464844 152.277344 153.078125 146.898438 C 154.265625 150.734375 154.839844 155.152344 154.886719 158.882812 Z M 210.921875 148.03125 C 210.335938 160.816406 207.203125 174.023438 202.066406 186.921875 C 198.832031 195.472656 195.042969 204.136719 189.578125 212.742188 C 187.460938 215.796875 184.785156 219.667969 183.046875 219.058594 C 179.078125 217.332031 177.933594 208.910156 179.007812 199.625 C 180.78125 182.320312 188.101562 164.421875 197.273438 148.320312 C 201.152344 141.417969 205.269531 135.089844 209.960938 129.375 C 211.082031 135.191406 211.160156 141.65625 210.921875 148.03125 Z M 249.789062 163.152344 C 245.820312 172.511719 236.988281 187.953125 233.144531 187.550781 C 230.160156 187.152344 229.578125 176.359375 230.492188 171.035156 C 233.488281 152.714844 243.316406 136.117188 254.238281 122.851562 C 255.003906 121.925781 255.804688 120.976562 256.640625 120.027344 C 259.488281 133.921875 255.0625 151.855469 249.789062 163.152344 Z M 249.789062 163.152344 " fill-opacity="1" fill-rule="nonzero"/></g></svg>